<svg width="250" height="250" viewBox="0 0 250 250" fill="none" xmlns="http://www.w3.org/2000/svg">
<path d="M205.729 80.7292H158.854C156.092 80.7292 153.442 79.6317 151.488 77.6782C149.535 75.7247 148.438 73.0752 148.438 70.3125V23.4375M205.729 80.7292V216.146C205.729 218.909 204.632 221.558 202.678 223.512C200.725 225.465 198.075 226.563 195.313 226.563H54.6875C51.9248 226.563 49.2753 225.465 47.3218 223.512C45.3683 221.558 44.2708 218.909 44.2708 216.146V33.8542C44.2708 31.0915 45.3683 28.442 47.3218 26.4885C49.2753 24.535 51.9248 23.4375 54.6875 23.4375H148.438M205.729 80.7292L148.438 23.4375" stroke="#0A6ED1" stroke-width="10" stroke-linecap="round" stroke-linejoin="round"/>
<path d="M55.59 147.57C55.59 142.81 56.6867 138.54 58.88 134.76C61.12 130.98 64.13 128.04 67.91 125.94C71.7367 123.793 75.9133 122.72 80.44 122.72C85.62 122.72 90.2167 124.003 94.23 126.57C98.29 129.09 101.23 132.683 103.05 137.35H93.46C92.2 134.783 90.45 132.87 88.21 131.61C85.97 130.35 83.38 129.72 80.44 129.72C77.22 129.72 74.35 130.443 71.83 131.89C69.31 133.337 67.3267 135.413 65.88 138.12C64.48 140.827 63.78 143.977 63.78 147.57C63.78 151.163 64.48 154.313 65.88 157.02C67.3267 159.727 69.31 161.827 71.83 163.32C74.35 164.767 77.22 165.49 80.44 165.49C83.38 165.49 85.97 164.86 88.21 163.6C90.45 162.34 92.2 160.427 93.46 157.86H103.05C101.23 162.527 98.29 166.12 94.23 168.64C90.2167 171.16 85.62 172.42 80.44 172.42C75.8667 172.42 71.69 171.37 67.91 169.27C64.13 167.123 61.12 164.16 58.88 160.38C56.6867 156.6 55.59 152.33 55.59 147.57ZM128.421 172.49C125.154 172.49 122.214 171.93 119.601 170.81C116.987 169.643 114.934 168.01 113.441 165.91C111.947 163.81 111.201 161.36 111.201 158.56H119.741C119.927 160.66 120.744 162.387 122.191 163.74C123.684 165.093 125.761 165.77 128.421 165.77C131.174 165.77 133.321 165.117 134.861 163.81C136.401 162.457 137.171 160.73 137.171 158.63C137.171 156.997 136.681 155.667 135.701 154.64C134.767 153.613 133.577 152.82 132.131 152.26C130.731 151.7 128.771 151.093 126.251 150.44C123.077 149.6 120.487 148.76 118.481 147.92C116.521 147.033 114.841 145.68 113.441 143.86C112.041 142.04 111.341 139.613 111.341 136.58C111.341 133.78 112.041 131.33 113.441 129.23C114.841 127.13 116.801 125.52 119.321 124.4C121.841 123.28 124.757 122.72 128.071 122.72C132.784 122.72 136.634 123.91 139.621 126.29C142.654 128.623 144.334 131.843 144.661 135.95H135.841C135.701 134.177 134.861 132.66 133.321 131.4C131.781 130.14 129.751 129.51 127.231 129.51C124.944 129.51 123.077 130.093 121.631 131.26C120.184 132.427 119.461 134.107 119.461 136.3C119.461 137.793 119.904 139.03 120.791 140.01C121.724 140.943 122.891 141.69 124.291 142.25C125.691 142.81 127.604 143.417 130.031 144.07C133.251 144.957 135.864 145.843 137.871 146.73C139.924 147.617 141.651 148.993 143.051 150.86C144.497 152.68 145.221 155.13 145.221 158.21C145.221 160.683 144.544 163.017 143.191 165.21C141.884 167.403 139.947 169.177 137.381 170.53C134.861 171.837 131.874 172.49 128.421 172.49ZM196.567 123.35L178.297 172H169.057L150.717 123.35H159.257L173.677 163.81L188.167 123.35H196.567Z" fill="#0A6ED1"/>
</svg>
