<svg width="250" height="250" viewBox="0 0 250 250" fill="none" xmlns="http://www.w3.org/2000/svg">
<g clip-path="url(#clip0_1_2)">
<path d="M147.321 1.54094e-06C147.221 0.0390689 147.102 0.0976702 147.002 0.156271L4.14541 26.7221C1.71398 27.1713 -0.0398499 29.281 9.73653e-06 31.7227V218.308C-0.0398499 220.75 1.71398 222.86 4.14541 223.309L147.002 249.875C148.477 250.148 150.012 249.777 151.187 248.84C152.343 247.902 153.041 246.515 153.061 245.03V220.027H239.795C245.376 220.027 249.999 215.496 249.999 210.026V40.005C249.999 34.5355 245.376 30.0037 239.795 30.0037H153.061V5.00062C153.081 3.55513 152.443 2.18777 151.347 1.23062C150.251 0.273473 148.776 -0.175802 147.321 1.54094e-06ZM142.857 10.9389V32.6603C142.179 34.0472 142.179 35.649 142.857 37.0359V214.089C142.717 214.753 142.717 215.456 142.857 216.121V239.092L10.2041 214.245V35.7857L142.857 10.9389ZM153.061 40.005H239.795V210.026H153.061V185.023H173.469V175.022H153.061V145.018H173.469V135.017H153.061V110.014H173.469V100.012H153.061V75.0093H173.469V65.0081H153.061V40.005ZM183.673 65.0081V75.0093H224.489V65.0081H183.673ZM34.1198 78.4473L62.0215 125.172L31.5688 171.896H57.0789L73.6605 141.736C74.8165 138.826 75.5738 136.599 75.8927 135.173H76.0521C76.7098 138.22 77.3475 140.291 77.9654 141.424L94.547 171.896H119.898L90.561 124.703L119.1 78.4473H95.1847L80.0381 106.107C78.5832 109.721 77.5468 112.573 77.0087 114.389H76.8493C76.0123 111.342 75.0556 108.627 73.9794 106.419L60.2677 78.4473H34.1198ZM183.673 100.012V110.014H224.489V100.012H183.673ZM183.673 135.017V145.018H224.489V135.017H183.673ZM183.673 175.022V185.023H224.489V175.022H183.673Z" fill="#0A6ED1"/>
</g>
<defs>
<clipPath id="clip0_1_2">
<rect width="250" height="250" fill="white"/>
</clipPath>
</defs>
</svg>
