<svg width="250" height="250" viewBox="0 0 250 250" fill="none" xmlns="http://www.w3.org/2000/svg">
<path d="M205.729 80.7292H158.854C156.091 80.7292 153.442 79.6317 151.488 77.6782C149.535 75.7247 148.437 73.0752 148.437 70.3125V23.4375M205.729 80.7292V216.146C205.729 218.909 204.632 221.558 202.678 223.512C200.725 225.465 198.075 226.563 195.312 226.563H54.6875C51.9248 226.563 49.2753 225.465 47.3218 223.512C45.3683 221.558 44.2708 218.909 44.2708 216.146V33.8542C44.2708 31.0915 45.3683 28.442 47.3218 26.4885C49.2753 24.535 51.9248 23.4375 54.6875 23.4375H148.437M205.729 80.7292L148.437 23.4375" stroke="#0A6ED1" stroke-width="10" stroke-linecap="round" stroke-linejoin="round"/>
<path d="M100.27 137.84C100.27 140.313 99.6867 142.647 98.52 144.84C97.3533 147.033 95.4867 148.83 92.92 150.23C90.3533 151.583 87.0633 152.26 83.05 152.26H74.23V172H66.25V123.35H83.05C86.7833 123.35 89.9333 124.003 92.5 125.31C95.1133 126.57 97.05 128.297 98.31 130.49C99.6167 132.683 100.27 135.133 100.27 137.84ZM83.05 145.75C86.0833 145.75 88.3467 145.073 89.84 143.72C91.3333 142.32 92.08 140.36 92.08 137.84C92.08 132.52 89.07 129.86 83.05 129.86H74.23V145.75H83.05ZM123.771 123.35C128.951 123.35 133.478 124.353 137.351 126.36C141.271 128.32 144.281 131.167 146.381 134.9C148.528 138.587 149.601 142.903 149.601 147.85C149.601 152.797 148.528 157.09 146.381 160.73C144.281 164.37 141.271 167.17 137.351 169.13C133.478 171.043 128.951 172 123.771 172H107.881V123.35H123.771ZM123.771 165.49C129.464 165.49 133.828 163.95 136.861 160.87C139.894 157.79 141.411 153.45 141.411 147.85C141.411 142.203 139.894 137.793 136.861 134.62C133.828 131.447 129.464 129.86 123.771 129.86H115.861V165.49H123.771ZM186.14 123.35V129.86H165.49V144.21H181.59V150.72H165.49V172H157.51V123.35H186.14Z" fill="#0A6ED1"/>
</svg>
