<svg width="360" height="137" viewBox="0 0 360 137" fill="none" xmlns="http://www.w3.org/2000/svg">
<path d="M237.2 69.3C237.2 65.8 235.8 62.4 233.3 59.9L233 59.6C230.5 57.3 227.3 56 223.9 56H201C197.6 56 194.4 57.3 191.9 59.6L191.6 59.9C189.1 62.5 187.7 65.8 187.7 69.4C187.7 80.5 198.3 83.6 211.9 85.3C219.7 87.2 235 85.9 235 98.6C235 104.5 230.2 109.3 224.4 109.3H200.3C197.5 109.3 194.8 108.2 192.8 106.2L192.5 105.8C190.7 103.8 189.7 101.3 189.7 98.6C189.7 97.9 189.1 97.3 188.3 97.3C187.6 97.3 187 97.9 187 98.6V99.1C187.1 102.3 188.4 105.4 190.6 107.7L190.9 108.1C193.4 110.6 196.8 112 200.3 112H224.4C231.6 112 237.7 106 237.7 98.6C237.7 74.8 190.4 91.1 190.4 69.4C190.4 66.5 191.5 63.8 193.5 61.8L194.4 61C196.3 59.5 198.6 58.7 201 58.7H223.9C226.3 58.7 228.6 59.5 230.4 61L231.4 61.8C233.4 63.8 234.5 66.5 234.5 69.4C234.5 70.1 235.1 70.7 235.9 70.7C236.6 70.7 237.2 70.1 237.2 69.4V69.3ZM272.609 56.1C259.809 56.1 249.109 66.8 249.109 79.6V88.5C249.109 101.3 259.709 112 272.609 112H283.609C296.209 112 307.109 101.4 307.109 88.5V79.6C307.109 66.8 296.409 56.1 283.609 56.1H272.609ZM251.809 79.6C251.809 68.2 261.209 58.8 272.609 58.8H283.609C294.909 58.8 304.409 68.2 304.409 79.6V88.5C304.409 99.9 294.909 109.3 283.609 109.3H272.609C261.209 109.3 251.809 99.9 251.809 88.5V79.6ZM350.062 109.3H334.862C326.962 109.3 320.462 102.8 320.462 94.9V57.4C320.462 56.7 319.862 56.1 319.062 56.1C318.362 56.1 317.762 56.7 317.762 57.4V94.9C317.762 104.3 325.462 112 334.862 112H351.362C352.062 112 352.662 111.4 352.662 110.7C352.662 109.9 352.062 109.3 351.362 109.3H350.062Z" fill="#1C1974"/>
<path d="M233 59.6L234.061 58.5393L234.039 58.5172L234.016 58.4961L233 59.6ZM191.9 59.6L190.884 58.4961L190.861 58.5172L190.839 58.5393L191.9 59.6ZM191.6 59.9L190.539 58.8393L190.529 58.8497L190.519 58.8603L191.6 59.9ZM211.9 85.3L212.255 83.8426L212.171 83.8223L212.086 83.8116L211.9 85.3ZM192.8 106.2L191.6 107.1L191.664 107.185L191.739 107.261L192.8 106.2ZM192.5 105.8L193.7 104.9L193.66 104.846L193.615 104.797L192.5 105.8ZM187 99.1H185.5V99.1234L185.501 99.1469L187 99.1ZM190.6 107.7L191.8 106.8L191.746 106.728L191.684 106.663L190.6 107.7ZM190.9 108.1L189.7 109L189.764 109.085L189.839 109.161L190.9 108.1ZM193.5 61.8L192.503 60.6789L192.471 60.7082L192.439 60.7393L193.5 61.8ZM194.4 61L193.471 59.8227L193.436 59.8498L193.403 59.8789L194.4 61ZM230.4 61L229.44 62.1523L229.451 62.1619L229.463 62.1713L230.4 61ZM231.4 61.8L232.461 60.7393L232.402 60.6806L232.337 60.6287L231.4 61.8ZM238.7 69.3C238.7 65.4025 237.142 61.6208 234.361 58.8393L232.239 60.9607C234.458 63.1792 235.7 66.1975 235.7 69.3H238.7ZM234.361 58.8393L234.061 58.5393L231.939 60.6607L232.239 60.9607L234.361 58.8393ZM234.016 58.4961C231.25 55.952 227.692 54.5 223.9 54.5V57.5C226.908 57.5 229.75 58.648 231.984 60.7039L234.016 58.4961ZM223.9 54.5H201V57.5H223.9V54.5ZM201 54.5C197.208 54.5 193.65 55.952 190.884 58.4961L192.916 60.7039C195.15 58.648 197.992 57.5 201 57.5V54.5ZM190.839 58.5393L190.539 58.8393L192.661 60.9607L192.961 60.6607L190.839 58.5393ZM190.519 58.8603C187.765 61.7245 186.2 65.3917 186.2 69.4H189.2C189.2 66.2082 190.435 63.2754 192.681 60.9397L190.519 58.8603ZM186.2 69.4C186.2 72.4258 186.926 74.9897 188.307 77.1387C189.681 79.278 191.644 80.9155 193.981 82.1916C198.604 84.7152 204.908 85.9376 211.714 86.7884L212.086 83.8116C205.292 82.9624 199.496 81.7848 195.419 79.5584C193.406 78.4595 191.869 77.1345 190.831 75.5175C189.799 73.9103 189.2 71.9242 189.2 69.4H186.2ZM211.545 86.7574C213.594 87.2565 216.129 87.5448 218.598 87.8801C221.126 88.2233 223.659 88.6228 225.928 89.3317C228.198 90.0411 230.075 91.023 231.383 92.4461C232.656 93.8317 233.5 95.756 233.5 98.6H236.5C236.5 95.094 235.431 92.4183 233.592 90.4164C231.787 88.452 229.352 87.2589 226.822 86.4683C224.291 85.6772 221.537 85.2517 219.002 84.9074C216.408 84.5552 214.106 84.2935 212.255 83.8426L211.545 86.7574ZM233.5 98.6C233.5 103.681 229.362 107.8 224.4 107.8V110.8C231.038 110.8 236.5 105.319 236.5 98.6H233.5ZM224.4 107.8H200.3V110.8H224.4V107.8ZM200.3 107.8C197.893 107.8 195.576 106.855 193.861 105.139L191.739 107.261C194.024 109.545 197.107 110.8 200.3 110.8V107.8ZM194 105.3L193.7 104.9L191.3 106.7L191.6 107.1L194 105.3ZM193.615 104.797C192.053 103.061 191.2 100.915 191.2 98.6H188.2C188.2 101.685 189.347 104.539 191.385 106.803L193.615 104.797ZM191.2 98.6C191.2 97 189.855 95.8 188.3 95.8V98.8C188.318 98.8 188.297 98.8038 188.267 98.775C188.239 98.7486 188.2 98.6884 188.2 98.6H191.2ZM188.3 95.8C186.772 95.8 185.5 97.0716 185.5 98.6H188.5C188.5 98.684 188.465 98.731 188.448 98.7482C188.431 98.7653 188.384 98.8 188.3 98.8V95.8ZM185.5 98.6V99.1H188.5V98.6H185.5ZM185.501 99.1469C185.612 102.715 187.059 106.168 189.516 108.737L191.684 106.663C189.741 104.632 188.588 101.885 188.499 99.0531L185.501 99.1469ZM189.4 108.6L189.7 109L192.1 107.2L191.8 106.8L189.4 108.6ZM189.839 109.161C192.621 111.942 196.402 113.5 200.3 113.5V110.5C197.198 110.5 194.179 109.258 191.961 107.039L189.839 109.161ZM200.3 113.5H224.4V110.5H200.3V113.5ZM224.4 113.5C232.428 113.5 239.2 106.828 239.2 98.6H236.2C236.2 105.172 230.772 110.5 224.4 110.5V113.5ZM239.2 98.6C239.2 95.3627 238.391 92.7076 236.902 90.5503C235.423 88.4061 233.344 86.8568 230.966 85.6996C226.275 83.417 220.107 82.5246 214.253 81.7263C208.256 80.9085 202.584 80.1879 198.38 78.391C196.31 77.5061 194.707 76.4025 193.62 74.9929C192.551 73.6065 191.9 71.8192 191.9 69.4H188.9C188.9 72.4058 189.727 74.856 191.244 76.8247C192.744 78.7702 194.837 80.1392 197.201 81.1496C201.866 83.1433 208.019 83.904 213.847 84.6987C219.818 85.5129 225.475 86.3642 229.653 88.3972C231.709 89.3979 233.326 90.6494 234.433 92.254C235.531 93.8455 236.2 95.8873 236.2 98.6H239.2ZM191.9 69.4C191.9 66.8858 192.85 64.571 194.561 62.8607L192.439 60.7393C190.15 63.029 188.9 66.1142 188.9 69.4H191.9ZM194.497 62.9211L195.397 62.1211L193.403 59.8789L192.503 60.6789L194.497 62.9211ZM195.329 62.1773C196.966 60.885 198.939 60.2 201 60.2V57.2C198.261 57.2 195.634 58.115 193.471 59.8227L195.329 62.1773ZM201 60.2H223.9V57.2H201V60.2ZM223.9 60.2C225.968 60.2 227.923 60.8886 229.44 62.1523L231.36 59.8477C229.277 58.1114 226.632 57.2 223.9 57.2V60.2ZM229.463 62.1713L230.463 62.9713L232.337 60.6287L231.337 59.8287L229.463 62.1713ZM230.339 62.8607C232.05 64.571 233 66.8858 233 69.4H236C236 66.1142 234.75 63.029 232.461 60.7393L230.339 62.8607ZM233 69.4C233 71 234.345 72.2 235.9 72.2V69.2C235.882 69.2 235.903 69.1962 235.933 69.225C235.961 69.2514 236 69.3116 236 69.4H233ZM235.9 72.2C237.428 72.2 238.7 70.9284 238.7 69.4H235.7C235.7 69.316 235.735 69.269 235.752 69.2518C235.769 69.2347 235.816 69.2 235.9 69.2V72.2ZM238.7 69.4V69.3H235.7V69.4H238.7ZM272.609 54.6C258.981 54.6 247.609 65.9716 247.609 79.6H250.609C250.609 67.6284 260.638 57.6 272.609 57.6V54.6ZM247.609 79.6V88.5H250.609V79.6H247.609ZM247.609 88.5C247.609 102.124 258.877 113.5 272.609 113.5V110.5C260.542 110.5 250.609 100.476 250.609 88.5H247.609ZM272.609 113.5H283.609V110.5H272.609V113.5ZM283.609 113.5C297.025 113.5 308.609 102.241 308.609 88.5H305.609C305.609 100.559 295.393 110.5 283.609 110.5V113.5ZM308.609 88.5V79.6H305.609V88.5H308.609ZM308.609 79.6C308.609 65.9716 297.238 54.6 283.609 54.6V57.6C295.581 57.6 305.609 67.6284 305.609 79.6H308.609ZM283.609 54.6H272.609V57.6H283.609V54.6ZM253.309 79.6C253.309 69.0284 262.038 60.3 272.609 60.3V57.3C260.381 57.3 250.309 67.3716 250.309 79.6H253.309ZM272.609 60.3H283.609V57.3H272.609V60.3ZM283.609 60.3C294.086 60.3 302.909 69.0331 302.909 79.6H305.909C305.909 67.3669 295.733 57.3 283.609 57.3V60.3ZM302.909 79.6V88.5H305.909V79.6H302.909ZM302.909 88.5C302.909 99.0669 294.086 107.8 283.609 107.8V110.8C295.733 110.8 305.909 100.733 305.909 88.5H302.909ZM283.609 107.8H272.609V110.8H283.609V107.8ZM272.609 107.8C262.038 107.8 253.309 99.0716 253.309 88.5H250.309C250.309 100.728 260.381 110.8 272.609 110.8V107.8ZM253.309 88.5V79.6H250.309V88.5H253.309ZM350.062 107.8H334.862V110.8H350.062V107.8ZM334.862 107.8C327.79 107.8 321.962 101.972 321.962 94.9H318.962C318.962 103.628 326.133 110.8 334.862 110.8V107.8ZM321.962 94.9V57.4H318.962V94.9H321.962ZM321.962 57.4C321.962 55.8 320.617 54.6 319.062 54.6V57.6C319.079 57.6 319.059 57.6038 319.029 57.575C319.001 57.5486 318.962 57.4884 318.962 57.4H321.962ZM319.062 54.6C317.533 54.6 316.262 55.8716 316.262 57.4H319.262C319.262 57.484 319.227 57.531 319.21 57.5482C319.193 57.5653 319.146 57.6 319.062 57.6V54.6ZM316.262 57.4V94.9H319.262V57.4H316.262ZM316.262 94.9C316.262 105.128 324.633 113.5 334.862 113.5V110.5C326.29 110.5 319.262 103.472 319.262 94.9H316.262ZM334.862 113.5H351.362V110.5H334.862V113.5ZM351.362 113.5C352.89 113.5 354.162 112.228 354.162 110.7H351.162C351.162 110.616 351.196 110.569 351.214 110.552C351.231 110.535 351.278 110.5 351.362 110.5V113.5ZM354.162 110.7C354.162 109.145 352.962 107.8 351.362 107.8V110.8C351.273 110.8 351.213 110.761 351.187 110.733C351.158 110.703 351.162 110.682 351.162 110.7H354.162ZM351.362 107.8H350.062V110.8H351.362V107.8Z" fill="#1C1974"/>
<path d="M31.1 92.1C40.8 91.9 48.9 83.9 48.9 74.1C48.9 64.3 40.7 56.1 30.9 56.1H11.3C8.4 56.1 5.7 57.2 3.6 59.1L3.3 59.4C1.2 61.5 0 64.4 0 67.4V110.7C0 111.4 0.6 112 1.3 112C2.1 112 2.7 111.4 2.7 110.7V92.1H31.1ZM29.6 89.4H2.7V67.4C2.7 65.1 3.6 62.9 5.2 61.3L6.1 60.4V60.5C7.6 59.4 9.4 58.8 11.3 58.8H30.9C39 58.8 46.2 65.6 46.2 74.1C46.2 82.6 39 89.4 30.9 89.4H29.6ZM61.4523 59.4C59.3523 61.5 58.1523 64.4 58.1523 67.4V110.7C58.1523 111.4 58.7523 112 59.4523 112C60.2523 112 60.8523 111.4 60.8523 110.7V92.1H84.7523L104.252 111.6C104.452 111.9 104.852 112 105.152 112C105.952 112 106.552 111.4 106.552 110.7C106.552 110.3 106.352 110 106.152 109.7L88.7523 92.3L91.2523 92C100.252 90.9 107.052 83 107.052 74.1C107.052 64.3 98.8523 56.1 89.0523 56.1H69.4523C66.5523 56.1 63.8523 57.2 61.7523 59.1L61.4523 59.4ZM87.7523 89.4H60.8523V67.4C60.8523 65.1 61.7523 62.9 63.3523 61.3L64.2523 60.4V60.5C65.7523 59.4 67.5523 58.8 69.4523 58.8H89.0523C97.1523 58.8 104.352 65.6 104.352 74.1C104.352 82.6 97.1523 89.4 89.0523 89.4H87.7523ZM142.637 56.1C129.837 56.1 119.137 66.8 119.137 79.6V88.5C119.137 101.3 129.737 112 142.637 112H153.637C166.237 112 177.137 101.4 177.137 88.5V79.6C177.137 66.8 166.437 56.1 153.637 56.1H142.637ZM121.837 79.6C121.837 68.2 131.237 58.8 142.637 58.8H153.637C164.937 58.8 174.437 68.2 174.437 79.6V88.5C174.437 99.9 164.937 109.3 153.637 109.3H142.637C131.237 109.3 121.837 99.9 121.837 88.5V79.6Z" fill="#F6941D"/>
<path d="M31.1 92.1V93.6H31.1155L31.1309 93.5997L31.1 92.1ZM3.6 59.1L2.59363 57.9877L2.56584 58.0128L2.53934 58.0393L3.6 59.1ZM3.3 59.4L4.36066 60.4607L4.36066 60.4607L3.3 59.4ZM2.7 92.1V90.6H1.2V92.1H2.7ZM2.7 89.4H1.2V90.9H2.7V89.4ZM5.2 61.3L4.13934 60.2393L4.13934 60.2393L5.2 61.3ZM6.1 60.4H7.6V56.7787L5.03934 59.3393L6.1 60.4ZM6.1 60.5H4.6V63.4601L6.98704 61.7096L6.1 60.5ZM31.1309 93.5997C41.6236 93.3833 50.4 84.7397 50.4 74.1H47.4C47.4 83.0603 39.9764 90.4167 31.0691 90.6003L31.1309 93.5997ZM50.4 74.1C50.4 63.4716 41.5284 54.6 30.9 54.6V57.6C39.8716 57.6 47.4 65.1284 47.4 74.1H50.4ZM30.9 54.6H11.3V57.6H30.9V54.6ZM11.3 54.6C8.01153 54.6 4.9569 55.8495 2.59363 57.9877L4.60637 60.2123C6.4431 58.5505 8.78847 57.6 11.3 57.6V54.6ZM2.53934 58.0393L2.23934 58.3393L4.36066 60.4607L4.66066 60.1607L2.53934 58.0393ZM2.23934 58.3393C-0.143752 60.7224 -1.5 64.0047 -1.5 67.4H1.5C1.5 64.7953 2.54375 62.2776 4.36066 60.4607L2.23934 58.3393ZM-1.5 67.4V110.7H1.5V67.4H-1.5ZM-1.5 110.7C-1.5 112.228 -0.228427 113.5 1.3 113.5V110.5C1.38399 110.5 1.431 110.535 1.44816 110.552C1.46532 110.569 1.5 110.616 1.5 110.7H-1.5ZM1.3 113.5C2.855 113.5 4.2 112.3 4.2 110.7H1.2C1.2 110.612 1.23913 110.551 1.26688 110.525C1.29717 110.496 1.31758 110.5 1.3 110.5V113.5ZM4.2 110.7V92.1H1.2V110.7H4.2ZM2.7 93.6H31.1V90.6H2.7V93.6ZM29.6 87.9H2.7V90.9H29.6V87.9ZM4.2 89.4V67.4H1.2V89.4H4.2ZM4.2 67.4C4.2 65.4893 4.94792 63.6734 6.26066 62.3607L4.13934 60.2393C2.25208 62.1266 1.2 64.7107 1.2 67.4H4.2ZM6.26066 62.3607L7.16066 61.4607L5.03934 59.3393L4.13934 60.2393L6.26066 62.3607ZM4.6 60.4V60.5H7.6V60.4H4.6ZM6.98704 61.7096C8.23161 60.7969 9.72132 60.3 11.3 60.3V57.3C9.07868 57.3 6.96839 58.0031 5.21296 59.2904L6.98704 61.7096ZM11.3 60.3H30.9V57.3H11.3V60.3ZM30.9 60.3C38.1971 60.3 44.7 66.4537 44.7 74.1H47.7C47.7 64.7463 39.8029 57.3 30.9 57.3V60.3ZM44.7 74.1C44.7 81.7463 38.1971 87.9 30.9 87.9V90.9C39.8029 90.9 47.7 83.4537 47.7 74.1H44.7ZM30.9 87.9H29.6V90.9H30.9V87.9ZM61.4523 59.4L62.513 60.4607L62.513 60.4607L61.4523 59.4ZM60.8523 92.1V90.6H59.3523V92.1H60.8523ZM84.7523 92.1L85.813 91.0393L85.3737 90.6H84.7523V92.1ZM104.252 111.6L105.5 110.768L105.418 110.644L105.313 110.539L104.252 111.6ZM106.152 109.7L107.4 108.868L107.318 108.744L107.213 108.639L106.152 109.7ZM88.7523 92.3L88.5736 90.8107L85.5094 91.1784L87.6917 93.3607L88.7523 92.3ZM91.2523 92L91.4311 93.4893L91.4343 93.4889L91.2523 92ZM61.7523 59.1L60.746 57.9877L60.7182 58.0128L60.6917 58.0393L61.7523 59.1ZM60.8523 89.4H59.3523V90.9H60.8523V89.4ZM63.3523 61.3L62.2917 60.2393L62.2917 60.2393L63.3523 61.3ZM64.2523 60.4H65.7523V56.7787L63.1917 59.3393L64.2523 60.4ZM64.2523 60.5H62.7523V63.4601L65.1394 61.7096L64.2523 60.5ZM60.3917 58.3393C58.0086 60.7224 56.6523 64.0047 56.6523 67.4H59.6523C59.6523 64.7953 60.6961 62.2776 62.513 60.4607L60.3917 58.3393ZM56.6523 67.4V110.7H59.6523V67.4H56.6523ZM56.6523 110.7C56.6523 112.228 57.9239 113.5 59.4523 113.5V110.5C59.5363 110.5 59.5833 110.535 59.6005 110.552C59.6177 110.569 59.6523 110.616 59.6523 110.7H56.6523ZM59.4523 113.5C61.0073 113.5 62.3523 112.3 62.3523 110.7H59.3523C59.3523 110.612 59.3915 110.551 59.4192 110.525C59.4495 110.496 59.4699 110.5 59.4523 110.5V113.5ZM62.3523 110.7V92.1H59.3523V110.7H62.3523ZM60.8523 93.6H84.7523V90.6H60.8523V93.6ZM83.6917 93.1607L103.192 112.661L105.313 110.539L85.813 91.0393L83.6917 93.1607ZM103.004 112.432C103.62 113.356 104.665 113.5 105.152 113.5V110.5C105.154 110.5 105.166 110.498 105.203 110.512C105.242 110.527 105.382 110.591 105.5 110.768L103.004 112.432ZM105.152 113.5C106.707 113.5 108.052 112.3 108.052 110.7H105.052C105.052 110.612 105.091 110.551 105.119 110.525C105.15 110.496 105.17 110.5 105.152 110.5V113.5ZM108.052 110.7C108.052 109.782 107.568 109.12 107.4 108.868L104.904 110.532C104.957 110.611 104.991 110.662 105.02 110.71C105.047 110.755 105.06 110.779 105.065 110.791C105.07 110.801 105.066 110.795 105.061 110.775C105.056 110.754 105.052 110.727 105.052 110.7H108.052ZM107.213 108.639L89.813 91.2393L87.6917 93.3607L105.092 110.761L107.213 108.639ZM88.9311 93.7893L91.4311 93.4893L91.0736 90.5107L88.5736 90.8107L88.9311 93.7893ZM91.4343 93.4889C101.201 92.2953 108.552 83.7441 108.552 74.1H105.552C105.552 82.2559 99.3041 89.5047 91.0704 90.5111L91.4343 93.4889ZM108.552 74.1C108.552 63.4716 99.6808 54.6 89.0523 54.6V57.6C98.0239 57.6 105.552 65.1284 105.552 74.1H108.552ZM89.0523 54.6H69.4523V57.6H89.0523V54.6ZM69.4523 54.6C66.1639 54.6 63.1092 55.8495 60.746 57.9877L62.7587 60.2123C64.5954 58.5505 66.9408 57.6 69.4523 57.6V54.6ZM60.6917 58.0393L60.3917 58.3393L62.513 60.4607L62.813 60.1607L60.6917 58.0393ZM87.7523 87.9H60.8523V90.9H87.7523V87.9ZM62.3523 89.4V67.4H59.3523V89.4H62.3523ZM62.3523 67.4C62.3523 65.4893 63.1003 63.6734 64.413 62.3607L62.2917 60.2393C60.4044 62.1266 59.3523 64.7107 59.3523 67.4H62.3523ZM64.413 62.3607L65.313 61.4607L63.1917 59.3393L62.2917 60.2393L64.413 62.3607ZM62.7523 60.4V60.5H65.7523V60.4H62.7523ZM65.1394 61.7096C66.384 60.7969 67.8737 60.3 69.4523 60.3V57.3C67.231 57.3 65.1207 58.0031 63.3653 59.2904L65.1394 61.7096ZM69.4523 60.3H89.0523V57.3H69.4523V60.3ZM89.0523 60.3C96.3494 60.3 102.852 66.4537 102.852 74.1H105.852C105.852 64.7463 97.9553 57.3 89.0523 57.3V60.3ZM102.852 74.1C102.852 81.7463 96.3494 87.9 89.0523 87.9V90.9C97.9553 90.9 105.852 83.4537 105.852 74.1H102.852ZM89.0523 87.9H87.7523V90.9H89.0523V87.9ZM142.637 54.6C129.008 54.6 117.637 65.9716 117.637 79.6H120.637C120.637 67.6284 130.665 57.6 142.637 57.6V54.6ZM117.637 79.6V88.5H120.637V79.6H117.637ZM117.637 88.5C117.637 102.124 128.904 113.5 142.637 113.5V110.5C130.569 110.5 120.637 100.476 120.637 88.5H117.637ZM142.637 113.5H153.637V110.5H142.637V113.5ZM153.637 113.5C167.053 113.5 178.637 102.241 178.637 88.5H175.637C175.637 100.559 165.421 110.5 153.637 110.5V113.5ZM178.637 88.5V79.6H175.637V88.5H178.637ZM178.637 79.6C178.637 65.9716 167.265 54.6 153.637 54.6V57.6C165.608 57.6 175.637 67.6284 175.637 79.6H178.637ZM153.637 54.6H142.637V57.6H153.637V54.6ZM123.337 79.6C123.337 69.0284 132.065 60.3 142.637 60.3V57.3C130.408 57.3 120.337 67.3716 120.337 79.6H123.337ZM142.637 60.3H153.637V57.3H142.637V60.3ZM153.637 60.3C164.113 60.3 172.937 69.0331 172.937 79.6H175.937C175.937 67.3669 165.76 57.3 153.637 57.3V60.3ZM172.937 79.6V88.5H175.937V79.6H172.937ZM172.937 88.5C172.937 99.0669 164.113 107.8 153.637 107.8V110.8C165.76 110.8 175.937 100.733 175.937 88.5H172.937ZM153.637 107.8H142.637V110.8H153.637V107.8ZM142.637 107.8C132.065 107.8 123.337 99.0716 123.337 88.5H120.337C120.337 100.728 130.408 110.8 142.637 110.8V107.8ZM123.337 88.5V79.6H120.337V88.5H123.337Z" fill="#F6941D"/>
<path d="M190.825 121.047H192.562L195.118 128.354L197.675 121.047H199.411L195.815 131H194.421L190.825 121.047ZM189.889 121.047H191.618L191.933 128.17V131H189.889V121.047ZM198.618 121.047H200.354V131H198.304V128.17L198.618 121.047ZM206.021 129.332V126.037C206.021 125.8 205.983 125.597 205.905 125.429C205.828 125.256 205.707 125.121 205.543 125.025C205.383 124.93 205.176 124.882 204.921 124.882C204.702 124.882 204.513 124.921 204.354 124.998C204.194 125.071 204.071 125.178 203.984 125.319C203.898 125.456 203.854 125.618 203.854 125.805H201.886C201.886 125.49 201.959 125.192 202.104 124.909C202.25 124.627 202.462 124.378 202.74 124.164C203.018 123.945 203.349 123.774 203.731 123.651C204.119 123.528 204.552 123.467 205.03 123.467C205.604 123.467 206.115 123.562 206.562 123.754C207.008 123.945 207.359 124.232 207.614 124.615C207.874 124.998 208.004 125.477 208.004 126.051V129.216C208.004 129.621 208.029 129.954 208.079 130.214C208.129 130.469 208.202 130.692 208.298 130.884V131H206.309C206.213 130.799 206.14 130.549 206.09 130.248C206.044 129.943 206.021 129.637 206.021 129.332ZM206.281 126.495L206.295 127.609H205.194C204.935 127.609 204.709 127.639 204.518 127.698C204.326 127.757 204.169 127.842 204.046 127.951C203.923 128.056 203.832 128.179 203.772 128.32C203.718 128.462 203.69 128.617 203.69 128.785C203.69 128.954 203.729 129.106 203.807 129.243C203.884 129.375 203.996 129.48 204.142 129.558C204.287 129.631 204.458 129.667 204.654 129.667C204.951 129.667 205.208 129.608 205.427 129.489C205.646 129.371 205.814 129.225 205.933 129.052C206.056 128.879 206.119 128.715 206.124 128.56L206.644 129.394C206.571 129.58 206.47 129.774 206.343 129.975C206.22 130.175 206.062 130.364 205.871 130.542C205.68 130.715 205.45 130.859 205.181 130.973C204.912 131.082 204.593 131.137 204.224 131.137C203.754 131.137 203.328 131.043 202.945 130.856C202.567 130.665 202.266 130.403 202.043 130.07C201.824 129.733 201.715 129.35 201.715 128.922C201.715 128.535 201.788 128.19 201.934 127.89C202.079 127.589 202.294 127.336 202.576 127.131C202.863 126.921 203.221 126.764 203.649 126.659C204.078 126.55 204.575 126.495 205.14 126.495H206.281ZM213.521 128.956C213.521 128.815 213.479 128.687 213.397 128.573C213.315 128.459 213.163 128.354 212.939 128.259C212.721 128.159 212.404 128.067 211.989 127.985C211.616 127.903 211.267 127.801 210.943 127.678C210.624 127.55 210.346 127.397 210.109 127.22C209.877 127.042 209.695 126.832 209.562 126.591C209.43 126.345 209.364 126.064 209.364 125.75C209.364 125.44 209.43 125.148 209.562 124.875C209.699 124.602 209.893 124.36 210.144 124.15C210.399 123.936 210.709 123.77 211.073 123.651C211.442 123.528 211.857 123.467 212.317 123.467C212.96 123.467 213.511 123.569 213.972 123.774C214.437 123.979 214.792 124.262 215.038 124.622C215.289 124.978 215.414 125.383 215.414 125.839H213.445C213.445 125.647 213.404 125.477 213.322 125.326C213.245 125.171 213.122 125.05 212.953 124.964C212.789 124.873 212.575 124.827 212.311 124.827C212.092 124.827 211.903 124.866 211.743 124.943C211.584 125.016 211.461 125.117 211.374 125.244C211.292 125.367 211.251 125.504 211.251 125.654C211.251 125.768 211.274 125.871 211.319 125.962C211.369 126.049 211.449 126.128 211.559 126.201C211.668 126.274 211.809 126.342 211.982 126.406C212.16 126.465 212.379 126.52 212.639 126.57C213.172 126.68 213.648 126.823 214.067 127.001C214.487 127.174 214.819 127.411 215.065 127.712C215.312 128.008 215.435 128.398 215.435 128.881C215.435 129.209 215.362 129.51 215.216 129.783C215.07 130.057 214.86 130.296 214.587 130.501C214.313 130.701 213.985 130.859 213.603 130.973C213.224 131.082 212.798 131.137 212.324 131.137C211.636 131.137 211.053 131.014 210.574 130.768C210.1 130.521 209.74 130.209 209.494 129.831C209.253 129.448 209.132 129.056 209.132 128.655H210.998C211.007 128.924 211.076 129.141 211.203 129.305C211.335 129.469 211.502 129.587 211.702 129.66C211.907 129.733 212.128 129.77 212.365 129.77C212.62 129.77 212.832 129.735 213.001 129.667C213.17 129.594 213.297 129.498 213.384 129.38C213.475 129.257 213.521 129.116 213.521 128.956ZM220.336 123.604V124.998H216.029V123.604H220.336ZM217.096 121.778H219.064V128.771C219.064 128.986 219.092 129.15 219.146 129.264C219.206 129.378 219.292 129.457 219.406 129.503C219.52 129.544 219.664 129.564 219.837 129.564C219.96 129.564 220.069 129.56 220.165 129.551C220.265 129.537 220.35 129.523 220.418 129.51L220.425 130.959C220.256 131.014 220.074 131.057 219.878 131.089C219.682 131.121 219.465 131.137 219.229 131.137C218.796 131.137 218.417 131.066 218.094 130.925C217.775 130.779 217.529 130.547 217.355 130.228C217.182 129.909 217.096 129.489 217.096 128.97V121.778ZM224.861 131.137C224.287 131.137 223.772 131.046 223.316 130.863C222.861 130.676 222.473 130.419 222.154 130.091C221.84 129.763 221.598 129.382 221.43 128.949C221.261 128.512 221.177 128.047 221.177 127.555V127.281C221.177 126.721 221.257 126.208 221.416 125.743C221.576 125.278 221.803 124.875 222.1 124.533C222.4 124.191 222.765 123.929 223.193 123.747C223.622 123.56 224.105 123.467 224.643 123.467C225.167 123.467 225.632 123.553 226.037 123.727C226.443 123.9 226.782 124.146 227.056 124.465C227.334 124.784 227.543 125.167 227.685 125.613C227.826 126.055 227.896 126.548 227.896 127.09V127.91H222.018V126.598H225.962V126.447C225.962 126.174 225.912 125.93 225.812 125.716C225.716 125.497 225.57 125.324 225.374 125.196C225.178 125.069 224.927 125.005 224.622 125.005C224.362 125.005 224.139 125.062 223.952 125.176C223.765 125.29 223.613 125.449 223.494 125.654C223.38 125.859 223.294 126.101 223.234 126.379C223.18 126.652 223.152 126.953 223.152 127.281V127.555C223.152 127.851 223.193 128.124 223.275 128.375C223.362 128.626 223.483 128.842 223.638 129.024C223.797 129.207 223.989 129.348 224.212 129.448C224.44 129.549 224.697 129.599 224.984 129.599C225.34 129.599 225.67 129.53 225.976 129.394C226.285 129.252 226.552 129.04 226.775 128.758L227.732 129.797C227.577 130.02 227.366 130.234 227.097 130.439C226.832 130.645 226.513 130.813 226.14 130.945C225.766 131.073 225.34 131.137 224.861 131.137ZM230.986 125.217V131H229.018V123.604H230.87L230.986 125.217ZM233.215 123.556L233.181 125.381C233.085 125.367 232.969 125.356 232.832 125.347C232.7 125.333 232.579 125.326 232.47 125.326C232.192 125.326 231.95 125.363 231.745 125.436C231.545 125.504 231.376 125.606 231.239 125.743C231.107 125.88 231.007 126.046 230.938 126.242C230.875 126.438 230.838 126.661 230.829 126.912L230.433 126.789C230.433 126.311 230.48 125.871 230.576 125.47C230.672 125.064 230.811 124.711 230.993 124.41C231.18 124.109 231.408 123.877 231.677 123.713C231.946 123.549 232.253 123.467 232.6 123.467C232.709 123.467 232.821 123.476 232.935 123.494C233.049 123.508 233.142 123.528 233.215 123.556ZM240.81 131H238.643L238.656 129.4H240.81C241.347 129.4 241.801 129.28 242.17 129.038C242.539 128.792 242.817 128.434 243.004 127.965C243.195 127.495 243.291 126.928 243.291 126.263V125.777C243.291 125.267 243.236 124.818 243.127 124.431C243.022 124.043 242.865 123.717 242.655 123.453C242.446 123.189 242.188 122.991 241.883 122.858C241.577 122.722 241.227 122.653 240.83 122.653H238.602V121.047H240.83C241.495 121.047 242.104 121.161 242.655 121.389C243.211 121.612 243.692 121.933 244.098 122.353C244.503 122.772 244.815 123.273 245.034 123.856C245.257 124.435 245.369 125.08 245.369 125.791V126.263C245.369 126.969 245.257 127.614 245.034 128.197C244.815 128.781 244.503 129.282 244.098 129.701C243.697 130.116 243.216 130.437 242.655 130.665C242.099 130.888 241.484 131 240.81 131ZM239.805 121.047V131H237.754V121.047H239.805ZM250.729 129.332V126.037C250.729 125.8 250.69 125.597 250.612 125.429C250.535 125.256 250.414 125.121 250.25 125.025C250.09 124.93 249.883 124.882 249.628 124.882C249.409 124.882 249.22 124.921 249.061 124.998C248.901 125.071 248.778 125.178 248.691 125.319C248.605 125.456 248.562 125.618 248.562 125.805H246.593C246.593 125.49 246.666 125.192 246.812 124.909C246.957 124.627 247.169 124.378 247.447 124.164C247.725 123.945 248.056 123.774 248.438 123.651C248.826 123.528 249.259 123.467 249.737 123.467C250.312 123.467 250.822 123.562 251.269 123.754C251.715 123.945 252.066 124.232 252.321 124.615C252.581 124.998 252.711 125.477 252.711 126.051V129.216C252.711 129.621 252.736 129.954 252.786 130.214C252.836 130.469 252.909 130.692 253.005 130.884V131H251.016C250.92 130.799 250.847 130.549 250.797 130.248C250.751 129.943 250.729 129.637 250.729 129.332ZM250.988 126.495L251.002 127.609H249.901C249.642 127.609 249.416 127.639 249.225 127.698C249.033 127.757 248.876 127.842 248.753 127.951C248.63 128.056 248.539 128.179 248.479 128.32C248.425 128.462 248.397 128.617 248.397 128.785C248.397 128.954 248.436 129.106 248.514 129.243C248.591 129.375 248.703 129.48 248.849 129.558C248.994 129.631 249.165 129.667 249.361 129.667C249.658 129.667 249.915 129.608 250.134 129.489C250.353 129.371 250.521 129.225 250.64 129.052C250.763 128.879 250.826 128.715 250.831 128.56L251.351 129.394C251.278 129.58 251.177 129.774 251.05 129.975C250.927 130.175 250.77 130.364 250.578 130.542C250.387 130.715 250.157 130.859 249.888 130.973C249.619 131.082 249.3 131.137 248.931 131.137C248.461 131.137 248.035 131.043 247.652 130.856C247.274 130.665 246.973 130.403 246.75 130.07C246.531 129.733 246.422 129.35 246.422 128.922C246.422 128.535 246.495 128.19 246.641 127.89C246.786 127.589 247.001 127.336 247.283 127.131C247.57 126.921 247.928 126.764 248.356 126.659C248.785 126.55 249.282 126.495 249.847 126.495H250.988ZM257.852 123.604V124.998H253.545V123.604H257.852ZM254.611 121.778H256.58V128.771C256.58 128.986 256.607 129.15 256.662 129.264C256.721 129.378 256.808 129.457 256.922 129.503C257.036 129.544 257.179 129.564 257.353 129.564C257.476 129.564 257.585 129.56 257.681 129.551C257.781 129.537 257.865 129.523 257.934 129.51L257.94 130.959C257.772 131.014 257.59 131.057 257.394 131.089C257.198 131.121 256.981 131.137 256.744 131.137C256.311 131.137 255.933 131.066 255.609 130.925C255.29 130.779 255.044 130.547 254.871 130.228C254.698 129.909 254.611 129.489 254.611 128.97V121.778ZM262.965 129.332V126.037C262.965 125.8 262.926 125.597 262.849 125.429C262.771 125.256 262.65 125.121 262.486 125.025C262.327 124.93 262.119 124.882 261.864 124.882C261.646 124.882 261.456 124.921 261.297 124.998C261.137 125.071 261.014 125.178 260.928 125.319C260.841 125.456 260.798 125.618 260.798 125.805H258.829C258.829 125.49 258.902 125.192 259.048 124.909C259.194 124.627 259.406 124.378 259.684 124.164C259.962 123.945 260.292 123.774 260.675 123.651C261.062 123.528 261.495 123.467 261.974 123.467C262.548 123.467 263.058 123.562 263.505 123.754C263.951 123.945 264.302 124.232 264.558 124.615C264.817 124.998 264.947 125.477 264.947 126.051V129.216C264.947 129.621 264.972 129.954 265.022 130.214C265.073 130.469 265.146 130.692 265.241 130.884V131H263.252C263.156 130.799 263.083 130.549 263.033 130.248C262.988 129.943 262.965 129.637 262.965 129.332ZM263.225 126.495L263.238 127.609H262.138C261.878 127.609 261.652 127.639 261.461 127.698C261.27 127.757 261.112 127.842 260.989 127.951C260.866 128.056 260.775 128.179 260.716 128.32C260.661 128.462 260.634 128.617 260.634 128.785C260.634 128.954 260.673 129.106 260.75 129.243C260.827 129.375 260.939 129.48 261.085 129.558C261.231 129.631 261.402 129.667 261.598 129.667C261.894 129.667 262.151 129.608 262.37 129.489C262.589 129.371 262.757 129.225 262.876 129.052C262.999 128.879 263.063 128.715 263.067 128.56L263.587 129.394C263.514 129.58 263.414 129.774 263.286 129.975C263.163 130.175 263.006 130.364 262.814 130.542C262.623 130.715 262.393 130.859 262.124 130.973C261.855 131.082 261.536 131.137 261.167 131.137C260.698 131.137 260.271 131.043 259.889 130.856C259.51 130.665 259.21 130.403 258.986 130.07C258.768 129.733 258.658 129.35 258.658 128.922C258.658 128.535 258.731 128.19 258.877 127.89C259.023 127.589 259.237 127.336 259.52 127.131C259.807 126.921 260.164 126.764 260.593 126.659C261.021 126.55 261.518 126.495 262.083 126.495H263.225ZM271.011 121.047H272.747L275.304 128.354L277.86 121.047H279.597L276.001 131H274.606L271.011 121.047ZM270.074 121.047H271.804L272.118 128.17V131H270.074V121.047ZM278.804 121.047H280.54V131H278.489V128.17L278.804 121.047ZM286.207 129.332V126.037C286.207 125.8 286.168 125.597 286.091 125.429C286.013 125.256 285.893 125.121 285.729 125.025C285.569 124.93 285.362 124.882 285.106 124.882C284.888 124.882 284.699 124.921 284.539 124.998C284.38 125.071 284.257 125.178 284.17 125.319C284.083 125.456 284.04 125.618 284.04 125.805H282.071C282.071 125.49 282.144 125.192 282.29 124.909C282.436 124.627 282.648 124.378 282.926 124.164C283.204 123.945 283.534 123.774 283.917 123.651C284.304 123.528 284.737 123.467 285.216 123.467C285.79 123.467 286.3 123.562 286.747 123.754C287.194 123.945 287.545 124.232 287.8 124.615C288.06 124.998 288.189 125.477 288.189 126.051V129.216C288.189 129.621 288.215 129.954 288.265 130.214C288.315 130.469 288.388 130.692 288.483 130.884V131H286.494C286.398 130.799 286.326 130.549 286.275 130.248C286.23 129.943 286.207 129.637 286.207 129.332ZM286.467 126.495L286.48 127.609H285.38C285.12 127.609 284.895 127.639 284.703 127.698C284.512 127.757 284.354 127.842 284.231 127.951C284.108 128.056 284.017 128.179 283.958 128.32C283.903 128.462 283.876 128.617 283.876 128.785C283.876 128.954 283.915 129.106 283.992 129.243C284.07 129.375 284.181 129.48 284.327 129.558C284.473 129.631 284.644 129.667 284.84 129.667C285.136 129.667 285.394 129.608 285.612 129.489C285.831 129.371 286 129.225 286.118 129.052C286.241 128.879 286.305 128.715 286.31 128.56L286.829 129.394C286.756 129.58 286.656 129.774 286.528 129.975C286.405 130.175 286.248 130.364 286.057 130.542C285.865 130.715 285.635 130.859 285.366 130.973C285.097 131.082 284.778 131.137 284.409 131.137C283.94 131.137 283.514 131.043 283.131 130.856C282.753 130.665 282.452 130.403 282.229 130.07C282.01 129.733 281.9 129.35 281.9 128.922C281.9 128.535 281.973 128.19 282.119 127.89C282.265 127.589 282.479 127.336 282.762 127.131C283.049 126.921 283.407 126.764 283.835 126.659C284.263 126.55 284.76 126.495 285.325 126.495H286.467ZM291.635 125.183V131H289.666V123.604H291.512L291.635 125.183ZM291.348 127.042H290.814C290.814 126.495 290.885 126.003 291.026 125.565C291.168 125.123 291.366 124.747 291.621 124.438C291.876 124.123 292.179 123.884 292.53 123.72C292.886 123.551 293.282 123.467 293.72 123.467C294.066 123.467 294.383 123.517 294.67 123.617C294.957 123.717 295.203 123.877 295.408 124.096C295.618 124.314 295.777 124.604 295.887 124.964C296.001 125.324 296.058 125.764 296.058 126.283V131H294.075V126.276C294.075 125.948 294.03 125.693 293.938 125.511C293.847 125.328 293.713 125.201 293.535 125.128C293.362 125.05 293.148 125.012 292.893 125.012C292.628 125.012 292.398 125.064 292.202 125.169C292.011 125.274 291.851 125.42 291.724 125.606C291.601 125.789 291.507 126.003 291.443 126.249C291.38 126.495 291.348 126.759 291.348 127.042ZM301.547 129.332V126.037C301.547 125.8 301.508 125.597 301.431 125.429C301.353 125.256 301.232 125.121 301.068 125.025C300.909 124.93 300.701 124.882 300.446 124.882C300.228 124.882 300.038 124.921 299.879 124.998C299.719 125.071 299.596 125.178 299.51 125.319C299.423 125.456 299.38 125.618 299.38 125.805H297.411C297.411 125.49 297.484 125.192 297.63 124.909C297.776 124.627 297.988 124.378 298.266 124.164C298.544 123.945 298.874 123.774 299.257 123.651C299.644 123.528 300.077 123.467 300.556 123.467C301.13 123.467 301.64 123.562 302.087 123.754C302.534 123.945 302.884 124.232 303.14 124.615C303.399 124.998 303.529 125.477 303.529 126.051V129.216C303.529 129.621 303.554 129.954 303.604 130.214C303.655 130.469 303.728 130.692 303.823 130.884V131H301.834C301.738 130.799 301.665 130.549 301.615 130.248C301.57 129.943 301.547 129.637 301.547 129.332ZM301.807 126.495L301.82 127.609H300.72C300.46 127.609 300.234 127.639 300.043 127.698C299.852 127.757 299.694 127.842 299.571 127.951C299.448 128.056 299.357 128.179 299.298 128.32C299.243 128.462 299.216 128.617 299.216 128.785C299.216 128.954 299.255 129.106 299.332 129.243C299.41 129.375 299.521 129.48 299.667 129.558C299.813 129.631 299.984 129.667 300.18 129.667C300.476 129.667 300.733 129.608 300.952 129.489C301.171 129.371 301.34 129.225 301.458 129.052C301.581 128.879 301.645 128.715 301.649 128.56L302.169 129.394C302.096 129.58 301.996 129.774 301.868 129.975C301.745 130.175 301.588 130.364 301.396 130.542C301.205 130.715 300.975 130.859 300.706 130.973C300.437 131.082 300.118 131.137 299.749 131.137C299.28 131.137 298.854 131.043 298.471 130.856C298.092 130.665 297.792 130.403 297.568 130.07C297.35 129.733 297.24 129.35 297.24 128.922C297.24 128.535 297.313 128.19 297.459 127.89C297.605 127.589 297.819 127.336 298.102 127.131C298.389 126.921 298.746 126.764 299.175 126.659C299.603 126.55 300.1 126.495 300.665 126.495H301.807ZM309.729 123.604H311.514V130.754C311.514 131.428 311.363 132 311.062 132.47C310.766 132.944 310.352 133.301 309.818 133.543C309.285 133.789 308.665 133.912 307.959 133.912C307.649 133.912 307.321 133.871 306.975 133.789C306.633 133.707 306.305 133.579 305.99 133.406C305.68 133.233 305.421 133.014 305.211 132.75L306.079 131.588C306.307 131.852 306.571 132.057 306.872 132.203C307.173 132.354 307.506 132.429 307.87 132.429C308.226 132.429 308.526 132.363 308.772 132.23C309.019 132.103 309.208 131.914 309.34 131.663C309.472 131.417 309.538 131.118 309.538 130.768V125.312L309.729 123.604ZM304.753 127.391V127.247C304.753 126.682 304.821 126.169 304.958 125.709C305.099 125.244 305.298 124.845 305.553 124.513C305.812 124.18 306.127 123.923 306.496 123.74C306.865 123.558 307.282 123.467 307.747 123.467C308.239 123.467 308.652 123.558 308.984 123.74C309.317 123.923 309.59 124.182 309.805 124.52C310.019 124.852 310.185 125.246 310.304 125.702C310.427 126.153 310.522 126.648 310.591 127.186V127.5C310.522 128.015 310.42 128.493 310.283 128.936C310.146 129.378 309.966 129.765 309.743 130.098C309.52 130.426 309.242 130.681 308.909 130.863C308.581 131.046 308.189 131.137 307.733 131.137C307.278 131.137 306.865 131.043 306.496 130.856C306.132 130.67 305.819 130.408 305.56 130.07C305.3 129.733 305.099 129.337 304.958 128.881C304.821 128.425 304.753 127.928 304.753 127.391ZM306.722 127.247V127.391C306.722 127.696 306.751 127.981 306.811 128.245C306.87 128.509 306.961 128.744 307.084 128.949C307.212 129.15 307.369 129.307 307.556 129.421C307.747 129.53 307.973 129.585 308.232 129.585C308.592 129.585 308.886 129.51 309.114 129.359C309.342 129.204 309.513 128.993 309.627 128.724C309.741 128.455 309.807 128.145 309.825 127.794V126.898C309.816 126.611 309.777 126.354 309.709 126.126C309.641 125.894 309.545 125.695 309.422 125.531C309.299 125.367 309.139 125.24 308.943 125.148C308.747 125.057 308.515 125.012 308.246 125.012C307.986 125.012 307.761 125.071 307.569 125.189C307.382 125.303 307.225 125.461 307.098 125.661C306.975 125.862 306.881 126.099 306.817 126.372C306.754 126.641 306.722 126.933 306.722 127.247ZM316.449 131.137C315.875 131.137 315.36 131.046 314.904 130.863C314.449 130.676 314.061 130.419 313.742 130.091C313.428 129.763 313.186 129.382 313.018 128.949C312.849 128.512 312.765 128.047 312.765 127.555V127.281C312.765 126.721 312.844 126.208 313.004 125.743C313.163 125.278 313.391 124.875 313.688 124.533C313.988 124.191 314.353 123.929 314.781 123.747C315.21 123.56 315.693 123.467 316.23 123.467C316.755 123.467 317.219 123.553 317.625 123.727C318.031 123.9 318.37 124.146 318.644 124.465C318.922 124.784 319.131 125.167 319.272 125.613C319.414 126.055 319.484 126.548 319.484 127.09V127.91H313.605V126.598H317.55V126.447C317.55 126.174 317.5 125.93 317.399 125.716C317.304 125.497 317.158 125.324 316.962 125.196C316.766 125.069 316.515 125.005 316.21 125.005C315.95 125.005 315.727 125.062 315.54 125.176C315.353 125.29 315.201 125.449 315.082 125.654C314.968 125.859 314.882 126.101 314.822 126.379C314.768 126.652 314.74 126.953 314.74 127.281V127.555C314.74 127.851 314.781 128.124 314.863 128.375C314.95 128.626 315.071 128.842 315.226 129.024C315.385 129.207 315.576 129.348 315.8 129.448C316.028 129.549 316.285 129.599 316.572 129.599C316.928 129.599 317.258 129.53 317.563 129.394C317.873 129.252 318.14 129.04 318.363 128.758L319.32 129.797C319.165 130.02 318.953 130.234 318.685 130.439C318.42 130.645 318.101 130.813 317.728 130.945C317.354 131.073 316.928 131.137 316.449 131.137ZM322.574 125.135V131H320.599V123.604H322.451L322.574 125.135ZM322.301 127.042H321.754C321.754 126.527 321.815 126.053 321.938 125.62C322.066 125.183 322.251 124.804 322.492 124.485C322.738 124.162 323.041 123.911 323.401 123.733C323.761 123.556 324.178 123.467 324.652 123.467C324.98 123.467 325.281 123.517 325.555 123.617C325.828 123.713 326.063 123.866 326.259 124.075C326.459 124.28 326.614 124.549 326.724 124.882C326.833 125.21 326.888 125.604 326.888 126.064V131H324.919V126.283C324.919 125.946 324.873 125.686 324.782 125.504C324.691 125.322 324.561 125.194 324.393 125.121C324.229 125.048 324.03 125.012 323.798 125.012C323.543 125.012 323.319 125.064 323.128 125.169C322.941 125.274 322.786 125.42 322.663 125.606C322.54 125.789 322.449 126.003 322.39 126.249C322.33 126.495 322.301 126.759 322.301 127.042ZM326.703 126.816L325.999 126.905C325.999 126.422 326.058 125.973 326.177 125.559C326.3 125.144 326.48 124.779 326.717 124.465C326.958 124.15 327.257 123.907 327.612 123.733C327.968 123.556 328.378 123.467 328.843 123.467C329.198 123.467 329.522 123.519 329.813 123.624C330.105 123.724 330.354 123.886 330.559 124.109C330.768 124.328 330.928 124.615 331.037 124.971C331.151 125.326 331.208 125.761 331.208 126.276V131H329.232V126.276C329.232 125.935 329.187 125.675 329.096 125.497C329.009 125.315 328.882 125.189 328.713 125.121C328.549 125.048 328.353 125.012 328.125 125.012C327.888 125.012 327.681 125.06 327.503 125.155C327.325 125.246 327.177 125.374 327.059 125.538C326.94 125.702 326.851 125.894 326.792 126.112C326.733 126.326 326.703 126.561 326.703 126.816ZM336.137 131.137C335.562 131.137 335.048 131.046 334.592 130.863C334.136 130.676 333.749 130.419 333.43 130.091C333.115 129.763 332.874 129.382 332.705 128.949C332.536 128.512 332.452 128.047 332.452 127.555V127.281C332.452 126.721 332.532 126.208 332.691 125.743C332.851 125.278 333.079 124.875 333.375 124.533C333.676 124.191 334.04 123.929 334.469 123.747C334.897 123.56 335.38 123.467 335.918 123.467C336.442 123.467 336.907 123.553 337.312 123.727C337.718 123.9 338.058 124.146 338.331 124.465C338.609 124.784 338.819 125.167 338.96 125.613C339.101 126.055 339.172 126.548 339.172 127.09V127.91H333.293V126.598H337.237V126.447C337.237 126.174 337.187 125.93 337.087 125.716C336.991 125.497 336.845 125.324 336.649 125.196C336.453 125.069 336.203 125.005 335.897 125.005C335.638 125.005 335.414 125.062 335.228 125.176C335.041 125.29 334.888 125.449 334.77 125.654C334.656 125.859 334.569 126.101 334.51 126.379C334.455 126.652 334.428 126.953 334.428 127.281V127.555C334.428 127.851 334.469 128.124 334.551 128.375C334.637 128.626 334.758 128.842 334.913 129.024C335.073 129.207 335.264 129.348 335.487 129.448C335.715 129.549 335.973 129.599 336.26 129.599C336.615 129.599 336.946 129.53 337.251 129.394C337.561 129.252 337.827 129.04 338.051 128.758L339.008 129.797C338.853 130.02 338.641 130.234 338.372 130.439C338.108 130.645 337.789 130.813 337.415 130.945C337.041 131.073 336.615 131.137 336.137 131.137ZM342.221 125.183V131H340.252V123.604H342.098L342.221 125.183ZM341.934 127.042H341.4C341.4 126.495 341.471 126.003 341.612 125.565C341.754 125.123 341.952 124.747 342.207 124.438C342.462 124.123 342.765 123.884 343.116 123.72C343.472 123.551 343.868 123.467 344.306 123.467C344.652 123.467 344.969 123.517 345.256 123.617C345.543 123.717 345.789 123.877 345.994 124.096C346.204 124.314 346.363 124.604 346.473 124.964C346.587 125.324 346.644 125.764 346.644 126.283V131H344.661V126.276C344.661 125.948 344.616 125.693 344.524 125.511C344.433 125.328 344.299 125.201 344.121 125.128C343.948 125.05 343.734 125.012 343.479 125.012C343.214 125.012 342.984 125.064 342.788 125.169C342.597 125.274 342.437 125.42 342.31 125.606C342.187 125.789 342.093 126.003 342.029 126.249C341.965 126.495 341.934 126.759 341.934 127.042ZM351.764 123.604V124.998H347.457V123.604H351.764ZM348.523 121.778H350.492V128.771C350.492 128.986 350.52 129.15 350.574 129.264C350.633 129.378 350.72 129.457 350.834 129.503C350.948 129.544 351.091 129.564 351.265 129.564C351.388 129.564 351.497 129.56 351.593 129.551C351.693 129.537 351.777 129.523 351.846 129.51L351.853 130.959C351.684 131.014 351.502 131.057 351.306 131.089C351.11 131.121 350.893 131.137 350.656 131.137C350.223 131.137 349.845 131.066 349.521 130.925C349.202 130.779 348.956 130.547 348.783 130.228C348.61 129.909 348.523 129.489 348.523 128.97V121.778Z" fill="#1C1974"/>
<circle cx="319.5" cy="34.5" r="12.25" stroke="#1C1974" stroke-width="2.5"/>
<circle cx="344.5" cy="10.5" r="7.25" stroke="#1C1974" stroke-width="2.5"/>
<circle cx="265.5" cy="8.5" r="7.25" stroke="#1C1974" stroke-width="2.5"/>
<circle cx="342.5" cy="72.5" r="7.25" stroke="#1C1974" stroke-width="2.5"/>
<line x1="326.085" y1="45.3798" x2="338.085" y2="66.3798" stroke="#1C1974" stroke-width="2.5"/>
<line x1="271.547" y1="11.876" x2="308.547" y2="29.876" stroke="#1C1974" stroke-width="2.5"/>
<line x1="296.145" y1="59.0881" x2="312.145" y2="44.0881" stroke="#1C1974" stroke-width="2.5"/>
<line x1="328.155" y1="27.0786" x2="340.155" y2="16.0786" stroke="#1C1974" stroke-width="2.5"/>
</svg>
