<svg width="250" height="250" viewBox="0 0 250 250" fill="none" xmlns="http://www.w3.org/2000/svg">
<path d="M205.729 80.7292H158.854C156.092 80.7292 153.442 79.6317 151.489 77.6782C149.535 75.7247 148.438 73.0752 148.438 70.3125V23.4375M205.729 80.7292V216.146C205.729 218.909 204.632 221.558 202.678 223.512C200.725 225.465 198.075 226.563 195.313 226.563H54.6875C51.9249 226.563 49.2754 225.465 47.3218 223.512C45.3683 221.558 44.2709 218.909 44.2709 216.146V33.8542C44.2709 31.0915 45.3683 28.442 47.3218 26.4885C49.2754 24.535 51.9249 23.4375 54.6875 23.4375H148.438M205.729 80.7292L148.438 23.4375" stroke="#0A6ED1" stroke-width="10" stroke-linecap="round" stroke-linejoin="round"/>
<rect x="63" y="121" width="121" height="8" fill="#0A6ED1"/>
<rect x="63" y="163" width="121" height="8" fill="#0A6ED1"/>
<rect x="63" y="142" width="83" height="8" fill="#0A6ED1"/>
<rect x="63" y="184" width="83" height="8" fill="#0A6ED1"/>
</svg>
